<svg width="1600" height="252" viewBox="0 0 1600 252" fill="none" xmlns="http://www.w3.org/2000/svg">
<rect width="1600" height="252" fill="#2F303A"/>
<path d="M223.294 66.592H226.596L228.676 72.702L230.756 66.592H234.084L230.938 74.99L233.278 80.892L238.504 66.54H242.404L234.89 85H231.874L228.676 77.252L225.478 85H222.462L215 66.54H218.848L224.1 80.892L226.388 74.99L223.294 66.592ZM249.379 85.26C248.287 85.26 247.299 85.078 246.415 84.714C245.531 84.3327 244.777 83.8213 244.153 83.18C243.529 82.5387 243.044 81.7933 242.697 80.944C242.368 80.0947 242.203 79.202 242.203 78.266C242.203 77.2953 242.368 76.3853 242.697 75.536C243.027 74.6693 243.503 73.9153 244.127 73.274C244.751 72.6153 245.505 72.0953 246.389 71.714C247.291 71.3327 248.296 71.142 249.405 71.142C250.515 71.142 251.503 71.3327 252.369 71.714C253.253 72.0953 253.999 72.6067 254.605 73.248C255.229 73.8893 255.697 74.6347 256.009 75.484C256.339 76.3333 256.503 77.2173 256.503 78.136C256.503 78.3613 256.495 78.578 256.477 78.786C256.477 78.994 256.46 79.1673 256.425 79.306H245.895C245.947 79.8433 246.077 80.32 246.285 80.736C246.493 81.152 246.762 81.5073 247.091 81.802C247.421 82.0967 247.793 82.322 248.209 82.478C248.625 82.634 249.059 82.712 249.509 82.712C250.203 82.712 250.853 82.5473 251.459 82.218C252.083 81.8713 252.508 81.4207 252.733 80.866L255.723 81.698C255.221 82.738 254.415 83.596 253.305 84.272C252.213 84.9307 250.905 85.26 249.379 85.26ZM252.915 77.044C252.829 76.0213 252.447 75.2067 251.771 74.6C251.113 73.976 250.307 73.664 249.353 73.664C248.885 73.664 248.443 73.7507 248.027 73.924C247.629 74.08 247.273 74.3053 246.961 74.6C246.649 74.8947 246.389 75.25 246.181 75.666C245.991 76.082 245.878 76.5413 245.843 77.044H252.915ZM267.154 85.26C266.114 85.26 265.186 85.026 264.372 84.558C263.557 84.09 262.916 83.4487 262.448 82.634V85H259.406V66.02H262.89V73.768C263.375 72.936 264.008 72.2947 264.788 71.844C265.585 71.376 266.512 71.142 267.57 71.142C268.454 71.142 269.26 71.3327 269.988 71.714C270.716 72.0953 271.34 72.6067 271.86 73.248C272.397 73.8893 272.804 74.6433 273.082 75.51C273.376 76.3767 273.524 77.2867 273.524 78.24C273.524 79.228 273.359 80.1467 273.03 80.996C272.718 81.8453 272.276 82.5907 271.704 83.232C271.132 83.856 270.456 84.35 269.676 84.714C268.896 85.078 268.055 85.26 267.154 85.26ZM266.192 82.296C266.746 82.296 267.258 82.192 267.726 81.984C268.194 81.7587 268.592 81.464 268.922 81.1C269.251 80.736 269.502 80.3113 269.676 79.826C269.866 79.3407 269.962 78.8207 269.962 78.266C269.962 77.7113 269.875 77.1827 269.702 76.68C269.528 76.1773 269.277 75.7353 268.948 75.354C268.636 74.9727 268.263 74.6693 267.83 74.444C267.396 74.2187 266.92 74.106 266.4 74.106C265.62 74.106 264.918 74.366 264.294 74.886C263.687 75.3887 263.219 76.0127 262.89 76.758V80.008C263.011 80.3547 263.184 80.6667 263.41 80.944C263.652 81.2213 263.921 81.464 264.216 81.672C264.51 81.8627 264.831 82.0187 265.178 82.14C265.524 82.244 265.862 82.296 266.192 82.296Z" fill="#2196F3"/>
<path d="M288 71.376C287.879 71.2547 287.654 71.09 287.324 70.882C287.012 70.674 286.622 70.4747 286.154 70.284C285.704 70.076 285.21 69.9027 284.672 69.764C284.135 69.6253 283.589 69.556 283.034 69.556C282.046 69.556 281.31 69.738 280.824 70.102C280.339 70.466 280.096 70.9773 280.096 71.636C280.096 72.0173 280.183 72.338 280.356 72.598C280.547 72.8407 280.816 73.0573 281.162 73.248C281.509 73.4387 281.942 73.612 282.462 73.768C283 73.924 283.615 74.0887 284.308 74.262C285.21 74.5047 286.024 74.7647 286.752 75.042C287.498 75.3193 288.122 75.666 288.624 76.082C289.144 76.498 289.543 77.0007 289.82 77.59C290.098 78.162 290.236 78.8727 290.236 79.722C290.236 80.71 290.046 81.5593 289.664 82.27C289.3 82.9633 288.798 83.5267 288.156 83.96C287.532 84.3933 286.804 84.714 285.972 84.922C285.158 85.1127 284.3 85.208 283.398 85.208C282.012 85.208 280.642 85 279.29 84.584C277.938 84.168 276.725 83.5787 275.65 82.816L277.236 79.722C277.392 79.878 277.67 80.086 278.068 80.346C278.484 80.5887 278.97 80.84 279.524 81.1C280.079 81.3427 280.694 81.5507 281.37 81.724C282.046 81.8973 282.74 81.984 283.45 81.984C285.426 81.984 286.414 81.3513 286.414 80.086C286.414 79.6873 286.302 79.3493 286.076 79.072C285.851 78.7947 285.53 78.552 285.114 78.344C284.698 78.136 284.196 77.9453 283.606 77.772C283.017 77.5987 282.358 77.408 281.63 77.2C280.746 76.9573 279.975 76.6973 279.316 76.42C278.675 76.1253 278.138 75.7873 277.704 75.406C277.271 75.0073 276.942 74.5567 276.716 74.054C276.508 73.534 276.404 72.9187 276.404 72.208C276.404 71.272 276.578 70.44 276.924 69.712C277.271 68.984 277.748 68.3773 278.354 67.892C278.978 67.4067 279.698 67.0427 280.512 66.8C281.327 66.54 282.202 66.41 283.138 66.41C284.438 66.41 285.634 66.618 286.726 67.034C287.818 67.4327 288.772 67.9093 289.586 68.464L288 71.376ZM301.401 84.298C300.933 84.506 300.361 84.714 299.685 84.922C299.009 85.13 298.299 85.234 297.553 85.234C297.068 85.234 296.609 85.1733 296.175 85.052C295.759 84.9307 295.387 84.74 295.057 84.48C294.745 84.2027 294.494 83.856 294.303 83.44C294.113 83.0067 294.017 82.4867 294.017 81.88V74.054H292.223V71.376H294.017V66.956H297.501V71.376H300.361V74.054H297.501V80.71C297.501 81.1953 297.623 81.542 297.865 81.75C298.125 81.9407 298.437 82.036 298.801 82.036C299.165 82.036 299.521 81.9753 299.867 81.854C300.214 81.7327 300.491 81.6287 300.699 81.542L301.401 84.298ZM308.156 85.26C306.752 85.26 305.686 84.8093 304.958 83.908C304.23 83.0067 303.866 81.672 303.866 79.904V71.376H307.35V79.15C307.35 81.2473 308.104 82.296 309.612 82.296C310.288 82.296 310.938 82.0967 311.562 81.698C312.203 81.282 312.723 80.658 313.122 79.826V71.376H316.606V80.996C316.606 81.36 316.666 81.62 316.788 81.776C316.926 81.932 317.143 82.0187 317.438 82.036V85C317.091 85.0693 316.796 85.1127 316.554 85.13C316.328 85.1473 316.12 85.156 315.93 85.156C315.306 85.156 314.794 85.0173 314.396 84.74C314.014 84.4453 313.789 84.0467 313.72 83.544L313.642 82.452C313.035 83.388 312.255 84.09 311.302 84.558C310.348 85.026 309.3 85.26 308.156 85.26ZM326.49 85.26C325.554 85.26 324.687 85.078 323.89 84.714C323.093 84.35 322.408 83.8473 321.836 83.206C321.264 82.5647 320.813 81.8193 320.484 80.97C320.172 80.1033 320.016 79.176 320.016 78.188C320.016 77.2 320.163 76.2813 320.458 75.432C320.77 74.5827 321.195 73.8373 321.732 73.196C322.269 72.5547 322.911 72.052 323.656 71.688C324.401 71.324 325.216 71.142 326.1 71.142C327.105 71.142 328.007 71.3847 328.804 71.87C329.619 72.3553 330.251 72.988 330.702 73.768V66.02H334.186V80.996C334.186 81.36 334.247 81.62 334.368 81.776C334.489 81.932 334.697 82.0187 334.992 82.036V85C334.385 85.1213 333.891 85.182 333.51 85.182C332.886 85.182 332.375 85.026 331.976 84.714C331.577 84.402 331.352 83.9947 331.3 83.492L331.222 82.634C330.719 83.5007 330.035 84.1593 329.168 84.61C328.319 85.0433 327.426 85.26 326.49 85.26ZM327.4 82.296C327.729 82.296 328.067 82.244 328.414 82.14C328.761 82.0187 329.081 81.854 329.376 81.646C329.671 81.438 329.931 81.1953 330.156 80.918C330.399 80.6407 330.581 80.3373 330.702 80.008V76.758C330.563 76.3767 330.364 76.03 330.104 75.718C329.861 75.3887 329.575 75.1113 329.246 74.886C328.934 74.6433 328.596 74.4527 328.232 74.314C327.885 74.1753 327.539 74.106 327.192 74.106C326.672 74.106 326.187 74.2187 325.736 74.444C325.303 74.6693 324.93 74.9813 324.618 75.38C324.306 75.7613 324.063 76.2033 323.89 76.706C323.717 77.2087 323.63 77.7287 323.63 78.266C323.63 78.838 323.725 79.3667 323.916 79.852C324.107 80.3373 324.367 80.762 324.696 81.126C325.025 81.49 325.415 81.776 325.866 81.984C326.334 82.192 326.845 82.296 327.4 82.296ZM338.386 85V71.376H341.87V85H338.386ZM338.386 69.478V66.02H341.87V69.478H338.386ZM352.085 85.26C350.975 85.26 349.979 85.0693 349.095 84.688C348.211 84.3067 347.457 83.7953 346.833 83.154C346.226 82.4953 345.758 81.7413 345.429 80.892C345.099 80.0427 344.935 79.15 344.935 78.214C344.935 77.2607 345.099 76.3593 345.429 75.51C345.758 74.6607 346.226 73.9153 346.833 73.274C347.457 72.6153 348.211 72.0953 349.095 71.714C349.979 71.3327 350.975 71.142 352.085 71.142C353.194 71.142 354.182 71.3327 355.049 71.714C355.933 72.0953 356.678 72.6153 357.285 73.274C357.909 73.9153 358.385 74.6607 358.715 75.51C359.044 76.3593 359.209 77.2607 359.209 78.214C359.209 79.15 359.044 80.0427 358.715 80.892C358.385 81.7413 357.917 82.4953 357.311 83.154C356.704 83.7953 355.959 84.3067 355.075 84.688C354.191 85.0693 353.194 85.26 352.085 85.26ZM348.523 78.214C348.523 78.8207 348.609 79.3753 348.783 79.878C348.973 80.3633 349.225 80.788 349.537 81.152C349.866 81.516 350.247 81.802 350.681 82.01C351.114 82.2007 351.582 82.296 352.085 82.296C352.587 82.296 353.055 82.2007 353.489 82.01C353.922 81.802 354.295 81.516 354.607 81.152C354.936 80.788 355.187 80.3547 355.361 79.852C355.551 79.3493 355.647 78.7947 355.647 78.188C355.647 77.5987 355.551 77.0527 355.361 76.55C355.187 76.0473 354.936 75.614 354.607 75.25C354.295 74.886 353.922 74.6087 353.489 74.418C353.055 74.21 352.587 74.106 352.085 74.106C351.582 74.106 351.114 74.21 350.681 74.418C350.247 74.626 349.866 74.912 349.537 75.276C349.225 75.64 348.973 76.0733 348.783 76.576C348.609 77.0787 348.523 77.6247 348.523 78.214Z" fill="white"/>
<path d="M220.735 121.649H217.324V128H216.053V120.604H220.735V121.649ZM222.283 127.337C222.283 127.118 222.347 126.936 222.475 126.79C222.607 126.644 222.803 126.571 223.063 126.571C223.322 126.571 223.518 126.644 223.65 126.79C223.787 126.936 223.856 127.118 223.856 127.337C223.856 127.547 223.787 127.722 223.65 127.863C223.518 128.005 223.322 128.075 223.063 128.075C222.803 128.075 222.607 128.005 222.475 127.863C222.347 127.722 222.283 127.547 222.283 127.337ZM233.042 123.529H231.832V128H230.52V118.047H231.832V122.436H232.858L236.337 118.047H237.971L234.17 122.873L238.251 128H236.645L233.042 123.529ZM244.297 120.604H245.562V128H244.297V122.606L240.886 128H239.621V120.604H240.886V126.004L244.297 120.604ZM251.081 128.137C250.079 128.137 249.263 127.809 248.634 127.152C248.005 126.492 247.691 125.61 247.691 124.507V124.274C247.691 123.541 247.83 122.887 248.108 122.312C248.39 121.734 248.782 121.283 249.284 120.959C249.789 120.631 250.336 120.467 250.924 120.467C251.886 120.467 252.633 120.784 253.166 121.417C253.7 122.05 253.966 122.957 253.966 124.138V124.664H248.955C248.974 125.393 249.186 125.983 249.591 126.435C250.001 126.881 250.521 127.104 251.15 127.104C251.596 127.104 251.975 127.013 252.285 126.831C252.594 126.649 252.866 126.407 253.098 126.106L253.871 126.708C253.251 127.66 252.321 128.137 251.081 128.137ZM250.924 121.506C250.414 121.506 249.985 121.693 249.639 122.066C249.293 122.436 249.079 122.955 248.996 123.625H252.702V123.529C252.665 122.887 252.492 122.39 252.182 122.039C251.872 121.684 251.453 121.506 250.924 121.506ZM255.972 128V120.604H258.857C259.841 120.604 260.596 120.777 261.12 121.123C261.648 121.465 261.913 121.968 261.913 122.634C261.913 122.976 261.81 123.285 261.605 123.563C261.4 123.837 261.097 124.047 260.696 124.192C261.142 124.297 261.5 124.502 261.769 124.808C262.042 125.113 262.179 125.478 262.179 125.901C262.179 126.58 261.929 127.1 261.427 127.46C260.93 127.82 260.226 128 259.315 128H255.972ZM257.237 124.753V126.981H259.329C259.857 126.981 260.251 126.883 260.511 126.688C260.776 126.492 260.908 126.216 260.908 125.86C260.908 125.122 260.365 124.753 259.281 124.753H257.237ZM257.237 123.741H258.871C260.055 123.741 260.648 123.395 260.648 122.702C260.648 122.009 260.087 121.652 258.966 121.629H257.237V123.741ZM264.233 129.982L263.515 129.49C263.944 128.893 264.167 128.278 264.185 127.645V126.503H265.422V127.494C265.422 127.954 265.308 128.415 265.081 128.875C264.857 129.335 264.575 129.704 264.233 129.982ZM277.384 128H276.12V121.649H272.716V128H271.444V120.604H277.384V128ZM286.083 124.384C286.083 125.509 285.825 126.416 285.31 127.104C284.795 127.793 284.098 128.137 283.219 128.137C282.321 128.137 281.614 127.852 281.099 127.282V130.844H279.835V120.604H280.99L281.052 121.424C281.567 120.786 282.282 120.467 283.198 120.467C284.087 120.467 284.789 120.802 285.304 121.472C285.823 122.142 286.083 123.074 286.083 124.268V124.384ZM284.818 124.24C284.818 123.406 284.64 122.748 284.285 122.265C283.929 121.782 283.442 121.54 282.822 121.54C282.056 121.54 281.482 121.88 281.099 122.559V126.093C281.478 126.767 282.056 127.104 282.836 127.104C283.442 127.104 283.923 126.865 284.278 126.387C284.638 125.904 284.818 125.188 284.818 124.24ZM290.748 124.288H287.412V123.256H290.748V124.288ZM297.901 121.629H295.42V128H294.155V121.629H291.722V120.604H297.901V121.629ZM311.169 118.047V128H309.857V119.127H306.288L306.11 123.071C306.042 124.393 305.905 125.386 305.7 126.052C305.5 126.717 305.204 127.207 304.812 127.521C304.42 127.831 303.896 127.991 303.239 128H302.809V126.927L303.082 126.913C303.506 126.881 303.832 126.744 304.06 126.503C304.288 126.257 304.461 125.867 304.579 125.334C304.698 124.801 304.782 123.98 304.832 122.873L305.037 118.047H311.169ZM316.846 128.137C315.843 128.137 315.028 127.809 314.399 127.152C313.77 126.492 313.455 125.61 313.455 124.507V124.274C313.455 123.541 313.594 122.887 313.872 122.312C314.155 121.734 314.547 121.283 315.048 120.959C315.554 120.631 316.101 120.467 316.689 120.467C317.65 120.467 318.398 120.784 318.931 121.417C319.464 122.05 319.731 122.957 319.731 124.138V124.664H314.72C314.738 125.393 314.95 125.983 315.356 126.435C315.766 126.881 316.285 127.104 316.914 127.104C317.361 127.104 317.739 127.013 318.049 126.831C318.359 126.649 318.63 126.407 318.863 126.106L319.635 126.708C319.015 127.66 318.085 128.137 316.846 128.137ZM316.689 121.506C316.178 121.506 315.75 121.693 315.404 122.066C315.057 122.436 314.843 122.955 314.761 123.625H318.466V123.529C318.43 122.887 318.256 122.39 317.946 122.039C317.637 121.684 317.217 121.506 316.689 121.506ZM324.587 127.104C325.038 127.104 325.433 126.968 325.77 126.694C326.107 126.421 326.294 126.079 326.33 125.669H327.527C327.504 126.093 327.358 126.496 327.089 126.879C326.82 127.262 326.46 127.567 326.009 127.795C325.562 128.023 325.088 128.137 324.587 128.137C323.58 128.137 322.778 127.802 322.181 127.132C321.588 126.457 321.292 125.537 321.292 124.37V124.158C321.292 123.438 321.424 122.798 321.689 122.237C321.953 121.677 322.331 121.242 322.824 120.932C323.32 120.622 323.906 120.467 324.58 120.467C325.41 120.467 326.098 120.715 326.645 121.212C327.196 121.709 327.49 122.354 327.527 123.146H326.33C326.294 122.668 326.112 122.276 325.783 121.971C325.46 121.661 325.059 121.506 324.58 121.506C323.938 121.506 323.439 121.738 323.083 122.203C322.732 122.663 322.557 123.331 322.557 124.206V124.445C322.557 125.298 322.732 125.954 323.083 126.414C323.434 126.874 323.935 127.104 324.587 127.104ZM334.154 120.604H335.418V128H334.154V122.606L330.743 128H329.478V120.604H330.743V126.004L334.154 120.604ZM345.377 123.823L347.668 118.047H349.192L345.671 126.339C345.434 126.868 345.213 127.243 345.008 127.467C344.803 127.686 344.562 127.854 344.284 127.973C344.01 128.087 343.666 128.144 343.251 128.144C342.891 128.144 342.661 128.123 342.561 128.082L342.602 127.043L343.224 127.07C343.703 127.07 344.058 126.84 344.291 126.38L344.461 126.024L344.721 125.416L341.331 118.047H342.8L345.377 123.823ZM352.592 124.849H351.67V128H350.398V120.604H351.67V123.734H352.497L354.985 120.604H356.516L353.59 124.158L356.762 128H355.156L352.592 124.849ZM364.517 124.384C364.517 125.509 364.26 126.416 363.745 127.104C363.23 127.793 362.533 128.137 361.653 128.137C360.755 128.137 360.049 127.852 359.534 127.282V130.844H358.269V120.604H359.424L359.486 121.424C360.001 120.786 360.716 120.467 361.633 120.467C362.521 120.467 363.223 120.802 363.738 121.472C364.258 122.142 364.517 123.074 364.517 124.268V124.384ZM363.253 124.24C363.253 123.406 363.075 122.748 362.719 122.265C362.364 121.782 361.876 121.54 361.257 121.54C360.491 121.54 359.917 121.88 359.534 122.559V126.093C359.912 126.767 360.491 127.104 361.27 127.104C361.876 127.104 362.357 126.865 362.713 126.387C363.073 125.904 363.253 125.188 363.253 124.24ZM371.117 128C371.044 127.854 370.985 127.594 370.939 127.221C370.351 127.831 369.65 128.137 368.834 128.137C368.105 128.137 367.505 127.932 367.036 127.521C366.571 127.107 366.339 126.583 366.339 125.949C366.339 125.179 366.63 124.582 367.214 124.158C367.802 123.73 368.626 123.516 369.688 123.516H370.919V122.935C370.919 122.493 370.787 122.142 370.522 121.882C370.258 121.618 369.868 121.485 369.353 121.485C368.902 121.485 368.524 121.599 368.219 121.827C367.913 122.055 367.761 122.331 367.761 122.654H366.489C366.489 122.285 366.619 121.93 366.879 121.588C367.143 121.242 367.498 120.968 367.945 120.768C368.396 120.567 368.891 120.467 369.428 120.467C370.281 120.467 370.948 120.681 371.431 121.109C371.914 121.533 372.165 122.119 372.183 122.866V126.271C372.183 126.95 372.27 127.49 372.443 127.891V128H371.117ZM369.018 127.036C369.415 127.036 369.791 126.934 370.146 126.729C370.502 126.523 370.759 126.257 370.919 125.929V124.411H369.928C368.378 124.411 367.603 124.865 367.603 125.771C367.603 126.168 367.735 126.478 368 126.701C368.264 126.924 368.604 127.036 369.018 127.036ZM379.371 120.604H380.636V128H379.371V122.606L375.96 128H374.695V120.604H375.96V126.004L379.371 120.604ZM389.129 128H387.864V124.842H384.467V128H383.195V120.604H384.467V123.81H387.864V120.604H389.129V128ZM393.89 124.849H392.967V128H391.695V120.604H392.967V123.734H393.794L396.282 120.604H397.813L394.888 124.158L398.06 128H396.453L393.89 124.849ZM404.352 120.604H405.616V128H404.352V122.606L400.941 128H399.676V120.604H400.941V126.004L404.352 120.604ZM408.026 129.982L407.308 129.49C407.736 128.893 407.959 128.278 407.978 127.645V126.503H409.215V127.494C409.215 127.954 409.101 128.415 408.873 128.875C408.65 129.335 408.367 129.704 408.026 129.982ZM421.519 128H414.997V127.091L418.443 123.263C418.953 122.684 419.304 122.215 419.495 121.854C419.691 121.49 419.789 121.114 419.789 120.727C419.789 120.207 419.632 119.781 419.318 119.448C419.003 119.116 418.584 118.949 418.06 118.949C417.431 118.949 416.941 119.129 416.59 119.489C416.244 119.845 416.071 120.341 416.071 120.979H414.806C414.806 120.063 415.1 119.323 415.688 118.758C416.28 118.193 417.071 117.91 418.06 117.91C418.985 117.91 419.716 118.154 420.254 118.642C420.792 119.125 421.061 119.77 421.061 120.576C421.061 121.556 420.437 122.723 419.188 124.076L416.522 126.968H421.519V128ZM428.242 118.04V119.113H428.009C427.025 119.132 426.241 119.423 425.658 119.988C425.074 120.553 424.737 121.349 424.646 122.374C425.17 121.772 425.885 121.472 426.792 121.472C427.658 121.472 428.349 121.777 428.864 122.388C429.383 122.998 429.643 123.787 429.643 124.753C429.643 125.778 429.363 126.599 428.802 127.214C428.246 127.829 427.499 128.137 426.56 128.137C425.607 128.137 424.835 127.772 424.243 127.043C423.65 126.309 423.354 125.366 423.354 124.213V123.728C423.354 121.896 423.744 120.496 424.523 119.53C425.307 118.56 426.471 118.063 428.016 118.04H428.242ZM426.58 122.524C426.148 122.524 425.749 122.654 425.384 122.914C425.02 123.174 424.767 123.5 424.625 123.892V124.356C424.625 125.177 424.81 125.838 425.179 126.339C425.548 126.84 426.009 127.091 426.56 127.091C427.13 127.091 427.576 126.881 427.9 126.462C428.228 126.043 428.392 125.493 428.392 124.814C428.392 124.131 428.226 123.579 427.893 123.16C427.565 122.736 427.127 122.524 426.58 122.524Z" fill="white"/>
<path d="M217.331 158H216.066V150.604H217.331V158ZM215.964 148.642C215.964 148.437 216.025 148.263 216.148 148.122C216.276 147.981 216.463 147.91 216.709 147.91C216.955 147.91 217.142 147.981 217.27 148.122C217.397 148.263 217.461 148.437 217.461 148.642C217.461 148.847 217.397 149.018 217.27 149.154C217.142 149.291 216.955 149.359 216.709 149.359C216.463 149.359 216.276 149.291 216.148 149.154C216.025 149.018 215.964 148.847 215.964 148.642ZM220.978 150.604L221.019 151.533C221.584 150.822 222.322 150.467 223.233 150.467C224.797 150.467 225.585 151.349 225.599 153.112V158H224.334V153.105C224.33 152.572 224.206 152.178 223.965 151.923C223.728 151.668 223.357 151.54 222.851 151.54C222.441 151.54 222.08 151.649 221.771 151.868C221.461 152.087 221.219 152.374 221.046 152.729V158H219.781V150.604H220.978ZM228.548 158V151.581H227.379V150.604H228.548V149.845C228.548 149.052 228.76 148.439 229.184 148.006C229.608 147.573 230.207 147.356 230.982 147.356C231.273 147.356 231.563 147.395 231.85 147.473L231.781 148.498C231.567 148.457 231.339 148.437 231.098 148.437C230.688 148.437 230.371 148.557 230.148 148.799C229.924 149.036 229.813 149.378 229.813 149.824V150.604H231.392V151.581H229.813V158H228.548ZM232.878 154.233C232.878 153.509 233.019 152.857 233.302 152.278C233.589 151.7 233.986 151.253 234.491 150.938C235.002 150.624 235.583 150.467 236.235 150.467C237.242 150.467 238.055 150.815 238.675 151.513C239.299 152.21 239.612 153.137 239.612 154.295V154.384C239.612 155.104 239.473 155.751 239.195 156.325C238.921 156.895 238.527 157.339 238.012 157.658C237.502 157.977 236.914 158.137 236.248 158.137C235.246 158.137 234.432 157.788 233.808 157.091C233.188 156.394 232.878 155.471 232.878 154.322V154.233ZM234.15 154.384C234.15 155.204 234.339 155.863 234.717 156.359C235.1 156.856 235.61 157.104 236.248 157.104C236.891 157.104 237.401 156.854 237.78 156.353C238.158 155.847 238.347 155.14 238.347 154.233C238.347 153.422 238.153 152.766 237.766 152.265C237.383 151.759 236.873 151.506 236.235 151.506C235.61 151.506 235.107 151.754 234.724 152.251C234.341 152.748 234.15 153.459 234.15 154.384ZM252.541 154.568C252.487 155.671 252.213 156.542 251.721 157.18C251.229 157.818 250.57 158.137 249.745 158.137C248.893 158.137 248.346 157.754 248.105 156.988C247.859 157.376 247.576 157.665 247.257 157.856C246.943 158.043 246.617 158.137 246.28 158.137C245.632 158.137 245.143 157.872 244.81 157.344C244.477 156.815 244.354 156.084 244.441 155.149C244.509 154.397 244.68 153.728 244.953 153.14C245.231 152.547 245.587 152.082 246.02 151.745C246.457 151.408 246.915 151.239 247.394 151.239C247.763 151.239 248.093 151.289 248.385 151.39C248.677 151.485 249.005 151.677 249.369 151.964L249.014 155.751C248.927 156.804 249.219 157.33 249.889 157.33C250.404 157.33 250.821 157.075 251.14 156.564C251.459 156.054 251.632 155.389 251.659 154.568C251.746 152.796 251.416 151.444 250.668 150.515C249.925 149.585 248.793 149.12 247.271 149.12C246.355 149.12 245.541 149.348 244.83 149.804C244.119 150.255 243.559 150.909 243.149 151.766C242.739 152.622 242.508 153.611 242.458 154.732C242.404 155.863 242.54 156.845 242.868 157.679C243.197 158.508 243.696 159.142 244.366 159.579C245.04 160.021 245.854 160.242 246.806 160.242C247.216 160.242 247.626 160.192 248.036 160.092C248.451 159.992 248.795 159.862 249.069 159.702L249.322 160.488C249.039 160.666 248.663 160.812 248.194 160.926C247.729 161.04 247.257 161.097 246.779 161.097C245.639 161.097 244.659 160.839 243.839 160.324C243.019 159.814 242.404 159.076 241.993 158.109C241.588 157.148 241.412 156.022 241.467 154.732C241.522 153.479 241.802 152.354 242.308 151.355C242.814 150.353 243.5 149.58 244.366 149.038C245.231 148.491 246.209 148.218 247.298 148.218C248.433 148.218 249.406 148.473 250.217 148.983C251.028 149.494 251.632 150.23 252.029 151.191C252.425 152.153 252.596 153.279 252.541 154.568ZM245.528 155.149C245.464 155.797 245.523 156.293 245.705 156.64C245.892 156.986 246.186 157.159 246.587 157.159C246.861 157.159 247.123 157.043 247.373 156.811C247.629 156.578 247.838 156.245 248.002 155.812L248.009 155.751L248.324 152.312C248.068 152.18 247.795 152.114 247.503 152.114C246.97 152.114 246.528 152.385 246.177 152.928C245.831 153.47 245.614 154.211 245.528 155.149ZM257.685 158.137C256.682 158.137 255.867 157.809 255.238 157.152C254.609 156.492 254.294 155.61 254.294 154.507V154.274C254.294 153.541 254.433 152.887 254.711 152.312C254.994 151.734 255.386 151.283 255.887 150.959C256.393 150.631 256.94 150.467 257.528 150.467C258.489 150.467 259.237 150.784 259.77 151.417C260.303 152.05 260.57 152.957 260.57 154.138V154.664H255.559C255.577 155.393 255.789 155.983 256.195 156.435C256.605 156.881 257.124 157.104 257.753 157.104C258.2 157.104 258.578 157.013 258.888 156.831C259.198 156.649 259.469 156.407 259.702 156.106L260.474 156.708C259.854 157.66 258.925 158.137 257.685 158.137ZM257.528 151.506C257.017 151.506 256.589 151.693 256.243 152.066C255.896 152.436 255.682 152.955 255.6 153.625H259.305V153.529C259.269 152.887 259.095 152.39 258.786 152.039C258.476 151.684 258.056 151.506 257.528 151.506ZM264.941 153.304L266.582 150.604H268.058L265.638 154.261L268.133 158H266.67L264.961 155.231L263.252 158H261.783L264.278 154.261L261.858 150.604H263.321L264.941 153.304ZM274.391 158C274.318 157.854 274.259 157.594 274.213 157.221C273.626 157.831 272.924 158.137 272.108 158.137C271.379 158.137 270.78 157.932 270.31 157.521C269.845 157.107 269.613 156.583 269.613 155.949C269.613 155.179 269.905 154.582 270.488 154.158C271.076 153.73 271.901 153.516 272.962 153.516H274.193V152.935C274.193 152.493 274.061 152.142 273.796 151.882C273.532 151.618 273.142 151.485 272.627 151.485C272.176 151.485 271.798 151.599 271.493 151.827C271.187 152.055 271.035 152.331 271.035 152.654H269.763C269.763 152.285 269.893 151.93 270.153 151.588C270.417 151.242 270.773 150.968 271.219 150.768C271.67 150.567 272.165 150.467 272.703 150.467C273.555 150.467 274.223 150.681 274.706 151.109C275.189 151.533 275.439 152.119 275.458 152.866V156.271C275.458 156.95 275.544 157.49 275.717 157.891V158H274.391ZM272.293 157.036C272.689 157.036 273.065 156.934 273.42 156.729C273.776 156.523 274.033 156.257 274.193 155.929V154.411H273.202C271.652 154.411 270.877 154.865 270.877 155.771C270.877 156.168 271.01 156.478 271.274 156.701C271.538 156.924 271.878 157.036 272.293 157.036ZM279.049 150.604L279.084 151.424C279.626 150.786 280.357 150.467 281.278 150.467C282.312 150.467 283.017 150.863 283.39 151.656C283.636 151.301 283.955 151.014 284.347 150.795C284.744 150.576 285.211 150.467 285.749 150.467C287.371 150.467 288.196 151.326 288.223 153.044V158H286.959V153.119C286.959 152.59 286.838 152.196 286.596 151.937C286.355 151.672 285.949 151.54 285.38 151.54C284.91 151.54 284.52 151.681 284.211 151.964C283.901 152.242 283.721 152.618 283.671 153.092V158H282.399V153.153C282.399 152.078 281.873 151.54 280.82 151.54C279.991 151.54 279.423 151.893 279.118 152.6V158H277.853V150.604H279.049ZM296.805 154.384C296.805 155.509 296.548 156.416 296.033 157.104C295.518 157.793 294.821 158.137 293.941 158.137C293.043 158.137 292.337 157.852 291.822 157.282V160.844H290.557V150.604H291.713L291.774 151.424C292.289 150.786 293.005 150.467 293.921 150.467C294.809 150.467 295.511 150.802 296.026 151.472C296.546 152.142 296.805 153.074 296.805 154.268V154.384ZM295.541 154.24C295.541 153.406 295.363 152.748 295.008 152.265C294.652 151.782 294.164 151.54 293.545 151.54C292.779 151.54 292.205 151.88 291.822 152.559V156.093C292.2 156.767 292.779 157.104 293.558 157.104C294.164 157.104 294.645 156.865 295.001 156.387C295.361 155.904 295.541 155.188 295.541 154.24ZM300.213 158H298.948V147.5H300.213V158ZM305.732 158.137C304.73 158.137 303.914 157.809 303.285 157.152C302.656 156.492 302.342 155.61 302.342 154.507V154.274C302.342 153.541 302.481 152.887 302.759 152.312C303.041 151.734 303.433 151.283 303.934 150.959C304.44 150.631 304.987 150.467 305.575 150.467C306.537 150.467 307.284 150.784 307.817 151.417C308.35 152.05 308.617 152.957 308.617 154.138V154.664H303.606C303.625 155.393 303.836 155.983 304.242 156.435C304.652 156.881 305.172 157.104 305.801 157.104C306.247 157.104 306.626 157.013 306.935 156.831C307.245 156.649 307.516 156.407 307.749 156.106L308.521 156.708C307.902 157.66 306.972 158.137 305.732 158.137ZM305.575 151.506C305.065 151.506 304.636 151.693 304.29 152.066C303.944 152.436 303.729 152.955 303.647 153.625H307.352V153.529C307.316 152.887 307.143 152.39 306.833 152.039C306.523 151.684 306.104 151.506 305.575 151.506ZM310.534 157.337C310.534 157.118 310.598 156.936 310.726 156.79C310.858 156.644 311.054 156.571 311.313 156.571C311.573 156.571 311.769 156.644 311.901 156.79C312.038 156.936 312.106 157.118 312.106 157.337C312.106 157.547 312.038 157.722 311.901 157.863C311.769 158.005 311.573 158.075 311.313 158.075C311.054 158.075 310.858 158.005 310.726 157.863C310.598 157.722 310.534 157.547 310.534 157.337ZM317.585 157.104C318.036 157.104 318.43 156.968 318.768 156.694C319.105 156.421 319.292 156.079 319.328 155.669H320.524C320.502 156.093 320.356 156.496 320.087 156.879C319.818 157.262 319.458 157.567 319.007 157.795C318.56 158.023 318.086 158.137 317.585 158.137C316.578 158.137 315.776 157.802 315.179 157.132C314.586 156.457 314.29 155.537 314.29 154.37V154.158C314.29 153.438 314.422 152.798 314.687 152.237C314.951 151.677 315.329 151.242 315.821 150.932C316.318 150.622 316.904 150.467 317.578 150.467C318.408 150.467 319.096 150.715 319.643 151.212C320.194 151.709 320.488 152.354 320.524 153.146H319.328C319.292 152.668 319.109 152.276 318.781 151.971C318.458 151.661 318.057 151.506 317.578 151.506C316.936 151.506 316.437 151.738 316.081 152.203C315.73 152.663 315.555 153.331 315.555 154.206V154.445C315.555 155.298 315.73 155.954 316.081 156.414C316.432 156.874 316.933 157.104 317.585 157.104ZM322.031 154.233C322.031 153.509 322.173 152.857 322.455 152.278C322.742 151.7 323.139 151.253 323.645 150.938C324.155 150.624 324.736 150.467 325.388 150.467C326.395 150.467 327.208 150.815 327.828 151.513C328.453 152.21 328.765 153.137 328.765 154.295V154.384C328.765 155.104 328.626 155.751 328.348 156.325C328.074 156.895 327.68 157.339 327.165 157.658C326.655 157.977 326.067 158.137 325.401 158.137C324.399 158.137 323.585 157.788 322.961 157.091C322.341 156.394 322.031 155.471 322.031 154.322V154.233ZM323.303 154.384C323.303 155.204 323.492 155.863 323.87 156.359C324.253 156.856 324.763 157.104 325.401 157.104C326.044 157.104 326.554 156.854 326.933 156.353C327.311 155.847 327.5 155.14 327.5 154.233C327.5 153.422 327.306 152.766 326.919 152.265C326.536 151.759 326.026 151.506 325.388 151.506C324.763 151.506 324.26 151.754 323.877 152.251C323.494 152.748 323.303 153.459 323.303 154.384ZM331.96 150.604L331.994 151.424C332.537 150.786 333.268 150.467 334.189 150.467C335.223 150.467 335.927 150.863 336.301 151.656C336.547 151.301 336.866 151.014 337.258 150.795C337.654 150.576 338.122 150.467 338.659 150.467C340.282 150.467 341.107 151.326 341.134 153.044V158H339.869V153.119C339.869 152.59 339.749 152.196 339.507 151.937C339.265 151.672 338.86 151.54 338.29 151.54C337.821 151.54 337.431 151.681 337.121 151.964C336.811 152.242 336.631 152.618 336.581 153.092V158H335.31V153.153C335.31 152.078 334.783 151.54 333.731 151.54C332.901 151.54 332.334 151.893 332.029 152.6V158H330.764V150.604H331.96Z" fill="white" fill-opacity="0.6"/>
<path d="M219.58 182.661H222.355V183.857H219.58V187.002H218.309V183.857H215.533V182.661H218.309V179.756H219.58V182.661ZM226.029 182.408H226.98C227.577 182.399 228.046 182.242 228.388 181.937C228.73 181.631 228.9 181.219 228.9 180.699C228.9 179.533 228.319 178.949 227.157 178.949C226.61 178.949 226.173 179.106 225.845 179.421C225.521 179.731 225.359 180.143 225.359 180.658H224.095C224.095 179.87 224.382 179.216 224.956 178.696C225.535 178.172 226.269 177.91 227.157 177.91C228.096 177.91 228.832 178.159 229.365 178.655C229.899 179.152 230.165 179.842 230.165 180.727C230.165 181.16 230.024 181.579 229.741 181.984C229.463 182.39 229.083 182.693 228.6 182.894C229.147 183.067 229.568 183.354 229.864 183.755C230.165 184.156 230.316 184.646 230.316 185.225C230.316 186.118 230.024 186.826 229.441 187.351C228.857 187.875 228.098 188.137 227.164 188.137C226.23 188.137 225.469 187.884 224.881 187.378C224.298 186.872 224.006 186.204 224.006 185.375H225.277C225.277 185.899 225.448 186.318 225.79 186.633C226.132 186.947 226.59 187.104 227.164 187.104C227.775 187.104 228.242 186.945 228.566 186.626C228.889 186.307 229.051 185.849 229.051 185.252C229.051 184.673 228.873 184.229 228.518 183.919C228.162 183.609 227.649 183.45 226.98 183.44H226.029V182.408ZM238.508 180.645C238.508 181.141 238.376 181.583 238.111 181.971C237.852 182.358 237.499 182.661 237.052 182.88C237.571 183.103 237.982 183.429 238.282 183.857C238.588 184.286 238.74 184.771 238.74 185.313C238.74 186.175 238.449 186.861 237.865 187.371C237.287 187.882 236.523 188.137 235.575 188.137C234.618 188.137 233.85 187.882 233.272 187.371C232.697 186.856 232.41 186.17 232.41 185.313C232.41 184.776 232.556 184.29 232.848 183.857C233.144 183.424 233.552 183.096 234.071 182.873C233.629 182.654 233.281 182.351 233.026 181.964C232.77 181.576 232.643 181.137 232.643 180.645C232.643 179.806 232.912 179.141 233.449 178.648C233.987 178.156 234.696 177.91 235.575 177.91C236.45 177.91 237.157 178.156 237.694 178.648C238.237 179.141 238.508 179.806 238.508 180.645ZM237.476 185.286C237.476 184.73 237.298 184.277 236.943 183.926C236.592 183.575 236.131 183.399 235.562 183.399C234.992 183.399 234.534 183.573 234.188 183.919C233.846 184.265 233.675 184.721 233.675 185.286C233.675 185.851 233.841 186.296 234.174 186.619C234.511 186.943 234.978 187.104 235.575 187.104C236.168 187.104 236.633 186.943 236.97 186.619C237.307 186.291 237.476 185.847 237.476 185.286ZM235.575 178.949C235.079 178.949 234.675 179.104 234.365 179.414C234.06 179.719 233.907 180.136 233.907 180.665C233.907 181.171 234.058 181.581 234.359 181.896C234.664 182.205 235.069 182.36 235.575 182.36C236.081 182.36 236.485 182.205 236.785 181.896C237.091 181.581 237.243 181.171 237.243 180.665C237.243 180.159 237.086 179.747 236.772 179.428C236.457 179.109 236.058 178.949 235.575 178.949ZM250.887 183.755C250.887 185.236 250.634 186.337 250.128 187.057C249.622 187.777 248.832 188.137 247.756 188.137C246.694 188.137 245.908 187.786 245.398 187.084C244.887 186.378 244.623 185.325 244.605 183.926V182.237C244.605 180.774 244.858 179.688 245.364 178.977C245.869 178.266 246.662 177.91 247.743 177.91C248.813 177.91 249.602 178.254 250.108 178.942C250.614 179.626 250.873 180.683 250.887 182.114V183.755ZM249.622 182.025C249.622 180.954 249.472 180.175 249.171 179.688C248.87 179.195 248.394 178.949 247.743 178.949C247.095 178.949 246.624 179.193 246.327 179.681C246.031 180.168 245.879 180.918 245.869 181.93V183.953C245.869 185.029 246.024 185.824 246.334 186.339C246.649 186.849 247.123 187.104 247.756 187.104C248.381 187.104 248.843 186.863 249.144 186.38C249.449 185.897 249.609 185.136 249.622 184.097V182.025ZM257.774 183.625C257.51 183.939 257.193 184.192 256.824 184.384C256.459 184.575 256.058 184.671 255.621 184.671C255.046 184.671 254.545 184.53 254.117 184.247C253.693 183.965 253.365 183.568 253.132 183.058C252.9 182.543 252.784 181.975 252.784 181.355C252.784 180.69 252.909 180.091 253.16 179.558C253.415 179.024 253.775 178.617 254.24 178.334C254.704 178.051 255.247 177.91 255.867 177.91C256.851 177.91 257.626 178.279 258.191 179.018C258.76 179.751 259.045 180.754 259.045 182.025V182.395C259.045 184.331 258.662 185.746 257.897 186.64C257.131 187.528 255.976 187.984 254.431 188.007H254.185V186.94H254.452C255.495 186.922 256.297 186.651 256.858 186.127C257.418 185.598 257.724 184.764 257.774 183.625ZM255.826 183.625C256.249 183.625 256.639 183.495 256.995 183.235C257.355 182.976 257.617 182.654 257.781 182.271V181.766C257.781 180.936 257.601 180.262 257.241 179.742C256.881 179.223 256.425 178.963 255.873 178.963C255.317 178.963 254.871 179.177 254.534 179.605C254.196 180.029 254.028 180.59 254.028 181.287C254.028 181.966 254.19 182.527 254.513 182.969C254.841 183.406 255.279 183.625 255.826 183.625ZM266.055 183.625C265.791 183.939 265.474 184.192 265.105 184.384C264.74 184.575 264.339 184.671 263.902 184.671C263.328 184.671 262.826 184.53 262.398 184.247C261.974 183.965 261.646 183.568 261.414 183.058C261.181 182.543 261.065 181.975 261.065 181.355C261.065 180.69 261.19 180.091 261.441 179.558C261.696 179.024 262.056 178.617 262.521 178.334C262.986 178.051 263.528 177.91 264.148 177.91C265.132 177.91 265.907 178.279 266.472 179.018C267.042 179.751 267.327 180.754 267.327 182.025V182.395C267.327 184.331 266.944 185.746 266.178 186.64C265.413 187.528 264.257 187.984 262.712 188.007H262.466V186.94H262.733C263.777 186.922 264.579 186.651 265.139 186.127C265.7 185.598 266.005 184.764 266.055 183.625ZM264.107 183.625C264.531 183.625 264.92 183.495 265.276 183.235C265.636 182.976 265.898 182.654 266.062 182.271V181.766C266.062 180.936 265.882 180.262 265.522 179.742C265.162 179.223 264.706 178.963 264.155 178.963C263.599 178.963 263.152 179.177 262.815 179.605C262.478 180.029 262.309 180.59 262.309 181.287C262.309 181.966 262.471 182.527 262.794 182.969C263.123 183.406 263.56 183.625 264.107 183.625ZM277.539 188H276.267V179.571L273.717 180.508V179.359L277.34 177.999H277.539V188ZM285.82 188H284.549V179.571L281.999 180.508V179.359L285.622 177.999H285.82V188ZM294.101 188H292.83V179.571L290.28 180.508V179.359L293.903 177.999H294.101V188ZM306.275 188H305.004V179.571L302.454 180.508V179.359L306.077 177.999H306.275V188ZM314.557 188H313.285V179.571L310.735 180.508V179.359L314.358 177.999H314.557V188ZM326.731 188H325.459V179.571L322.909 180.508V179.359L326.532 177.999H326.731V188ZM335.012 188H333.741V179.571L331.191 180.508V179.359L334.814 177.999H335.012V188Z" fill="white" fill-opacity="0.6"/>
</svg>
